<svg width="207" height="44" viewBox="0 0 207 44" fill="none" xmlns="http://www.w3.org/2000/svg">
<path opacity="0.5" d="M13.8423 22.0039H9.66387C6.77257 22.0039 4.42871 24.3506 4.42871 27.2455V31.429C4.42871 34.3238 6.77257 36.6706 9.66387 36.6706H13.8423C16.7336 36.6706 19.0774 34.3238 19.0774 31.429V27.2455C19.0774 24.3506 16.7336 22.0039 13.8423 22.0039Z" fill="#ADC03D"/>
<path opacity="0.5" d="M34.2895 22.0039H30.1111C27.2198 22.0039 24.876 24.3506 24.876 27.2455V31.429C24.876 34.3238 27.2198 36.6706 30.1111 36.6706H34.2895C37.1808 36.6706 39.5247 34.3238 39.5247 31.429V27.2455C39.5247 24.3506 37.1808 22.0039 34.2895 22.0039Z" fill="#D38430"/>
<path opacity="0.5" d="M34.2895 7.33008H30.1111C27.2198 7.33008 24.876 9.67681 24.876 12.5717V16.7552C24.876 19.65 27.2198 21.9967 30.1111 21.9967H34.2895C37.1808 21.9967 39.5247 19.65 39.5247 16.7552V12.5717C39.5247 9.67681 37.1808 7.33008 34.2895 7.33008Z" fill="#774388"/>
<path opacity="0.5" d="M38.7182 14.666H34.5398C31.6485 14.666 29.3047 17.0127 29.3047 19.9076V24.0911C29.3047 26.986 31.6485 29.3327 34.5398 29.3327H38.7182C41.6095 29.3327 43.9534 26.986 43.9534 24.0911V19.9076C43.9534 17.0127 41.6095 14.666 38.7182 14.666Z" fill="#C13926"/>
<path opacity="0.5" d="M24.062 29.334H19.8836C16.9923 29.334 14.6484 31.6807 14.6484 34.5756V38.7591C14.6484 41.6539 16.9923 44.0007 19.8836 44.0007H24.062C26.9533 44.0007 29.2972 41.6539 29.2972 38.7591V34.5756C29.2972 31.6807 26.9533 29.334 24.062 29.334Z" fill="#F6E536"/>
<path opacity="0.5" d="M9.41356 14.666H5.23516C2.34386 14.666 0 17.0127 0 19.9076V24.0911C0 26.986 2.34386 29.3327 5.23516 29.3327H9.41356C12.3049 29.3327 14.6487 26.986 14.6487 24.0911V19.9076C14.6487 17.0127 12.3049 14.666 9.41356 14.666Z" fill="#82B04A"/>
<path opacity="0.5" d="M24.062 0H19.8836C16.9923 0 14.6484 2.34673 14.6484 5.24158V9.42509C14.6484 12.3199 16.9923 14.6667 19.8836 14.6667H24.062C26.9533 14.6667 29.2972 12.3199 29.2972 9.42509V5.24158C29.2972 2.34673 26.9533 0 24.062 0Z" fill="#6DA4D4"/>
<path opacity="0.5" d="M13.8423 7.33594H9.66387C6.77257 7.33594 4.42871 9.68267 4.42871 12.5775V16.761C4.42871 19.6559 6.77257 22.0026 9.66387 22.0026H13.8423C16.7336 22.0026 19.0774 19.6559 19.0774 16.761V12.5775C19.0774 9.68267 16.7336 7.33594 13.8423 7.33594Z" fill="#8DC0D5"/>
<path opacity="0.5" d="M24.062 14.666H19.8836C16.9923 14.666 14.6484 17.0127 14.6484 19.9076V24.0911C14.6484 26.986 16.9923 29.3327 19.8836 29.3327H24.062C26.9533 29.3327 29.2972 26.986 29.2972 24.0911V19.9076C29.2972 17.0127 26.9533 14.666 24.062 14.666Z" fill="#C1236C"/>
<path opacity="0.5" d="M13.8423 22.0039H9.66387C6.77257 22.0039 4.42871 24.3506 4.42871 27.2455V31.429C4.42871 34.3238 6.77257 36.6706 9.66387 36.6706H13.8423C16.7336 36.6706 19.0774 34.3238 19.0774 31.429V27.2455C19.0774 24.3506 16.7336 22.0039 13.8423 22.0039Z" fill="#ADC03D"/>
<path opacity="0.5" d="M34.2895 22.0039H30.1111C27.2198 22.0039 24.876 24.3506 24.876 27.2455V31.429C24.876 34.3238 27.2198 36.6706 30.1111 36.6706H34.2895C37.1808 36.6706 39.5247 34.3238 39.5247 31.429V27.2455C39.5247 24.3506 37.1808 22.0039 34.2895 22.0039Z" fill="#D38430"/>
<path opacity="0.5" d="M34.2895 7.33008H30.1111C27.2198 7.33008 24.876 9.67681 24.876 12.5717V16.7552C24.876 19.65 27.2198 21.9967 30.1111 21.9967H34.2895C37.1808 21.9967 39.5247 19.65 39.5247 16.7552V12.5717C39.5247 9.67681 37.1808 7.33008 34.2895 7.33008Z" fill="#774388"/>
<path opacity="0.5" d="M38.7182 14.666H34.5398C31.6485 14.666 29.3047 17.0127 29.3047 19.9076V24.0911C29.3047 26.986 31.6485 29.3327 34.5398 29.3327H38.7182C41.6095 29.3327 43.9534 26.986 43.9534 24.0911V19.9076C43.9534 17.0127 41.6095 14.666 38.7182 14.666Z" fill="#C13926"/>
<path opacity="0.5" d="M24.062 29.334H19.8836C16.9923 29.334 14.6484 31.6807 14.6484 34.5756V38.7591C14.6484 41.6539 16.9923 44.0007 19.8836 44.0007H24.062C26.9533 44.0007 29.2972 41.6539 29.2972 38.7591V34.5756C29.2972 31.6807 26.9533 29.334 24.062 29.334Z" fill="#F6E536"/>
<path opacity="0.5" d="M9.41356 14.666H5.23516C2.34386 14.666 0 17.0127 0 19.9076V24.0911C0 26.986 2.34386 29.3327 5.23516 29.3327H9.41356C12.3049 29.3327 14.6487 26.986 14.6487 24.0911V19.9076C14.6487 17.0127 12.3049 14.666 9.41356 14.666Z" fill="#82B04A"/>
<path opacity="0.5" d="M24.062 0H19.8836C16.9923 0 14.6484 2.34673 14.6484 5.24158V9.42509C14.6484 12.3199 16.9923 14.6667 19.8836 14.6667H24.062C26.9533 14.6667 29.2972 12.3199 29.2972 9.42509V5.24158C29.2972 2.34673 26.9533 0 24.062 0Z" fill="#6DA4D4"/>
<path opacity="0.5" d="M13.8423 7.33594H9.66387C6.77257 7.33594 4.42871 9.68267 4.42871 12.5775V16.761C4.42871 19.6559 6.77257 22.0026 9.66387 22.0026H13.8423C16.7336 22.0026 19.0774 19.6559 19.0774 16.761V12.5775C19.0774 9.68267 16.7336 7.33594 13.8423 7.33594Z" fill="#8DC0D5"/>
<path opacity="0.5" d="M24.062 14.666H19.8836C16.9923 14.666 14.6484 17.0127 14.6484 19.9076V24.0911C14.6484 26.986 16.9923 29.3327 19.8836 29.3327H24.062C26.9533 29.3327 29.2972 26.986 29.2972 24.0911V19.9076C29.2972 17.0127 26.9533 14.666 24.062 14.666Z" fill="#C1236C"/>
<path d="M58.5794 7.12548C59.3155 7.39058 59.8791 7.76785 60.2703 8.26067C60.6615 8.75349 60.8592 9.34147 60.8592 10.0178C60.8592 10.6942 60.6615 11.272 60.2703 11.7682C59.8791 12.2644 59.3155 12.6485 58.5794 12.9102C57.8432 13.1753 56.9809 13.3078 55.9882 13.3078H53.4055V15.0072C53.4055 15.5408 52.8671 15.9759 52.2067 15.9759H51.2812V6.72443H55.9924C56.9851 6.72443 57.8475 6.85698 58.5836 7.12208L58.5794 7.12548ZM57.9989 11.3807C58.4784 11.0646 58.7182 10.6092 58.7182 10.0212C58.7182 9.43324 58.4784 8.97781 57.9989 8.66172C57.5194 8.34564 56.8169 8.18589 55.8873 8.18589H53.4013V11.86H55.8873C56.8127 11.86 57.5151 11.7002 57.9989 11.3841V11.3807Z" fill="#4F5252"/>
<path d="M70.122 15.5653L68.1408 13.2711C68.0441 13.2813 67.8969 13.2847 67.6992 13.2847H65.1164V15.0113C65.1164 15.5449 64.578 15.9799 63.9176 15.9799H62.9922V6.72852H67.7034C68.6961 6.72852 69.5584 6.86107 70.2945 7.12617C71.0306 7.39127 71.5943 7.76854 71.9855 8.26136C72.3767 8.75418 72.5744 9.34216 72.5744 10.0185C72.5744 10.6949 72.3641 11.3134 71.9434 11.8165C71.5228 12.3195 70.9213 12.6933 70.1347 12.9381L72.7679 15.9766H71.1021C70.7109 15.9766 70.345 15.8202 70.1178 15.5619L70.122 15.5653ZM69.7098 8.65901C69.2303 8.34293 68.5278 8.18319 67.5982 8.18319H65.1122V11.8708H67.5982C68.5236 11.8708 69.2261 11.7111 69.7098 11.3882C70.1894 11.0653 70.4291 10.6099 70.4291 10.0219C70.4291 9.43393 70.1894 8.9785 69.7098 8.66241V8.65901Z" fill="#4F5252"/>
<path d="M77.1341 15.4971C76.1961 15.0858 75.46 14.5182 74.9257 13.7909C74.3915 13.0635 74.1223 12.2512 74.1223 11.354C74.1223 10.4567 74.3873 9.641 74.9257 8.91706C75.46 8.18972 76.1961 7.62213 77.1341 7.21088C78.0721 6.79963 79.1237 6.5957 80.2889 6.5957C81.4541 6.5957 82.5057 6.79963 83.4437 7.21088C84.3817 7.62213 85.1179 8.18632 85.6521 8.91026C86.1863 9.6342 86.4555 10.4465 86.4555 11.354C86.4555 12.2614 86.1863 13.0771 85.6521 13.7977C85.1179 14.5216 84.3817 15.0858 83.4437 15.4971C82.5057 15.9083 81.4541 16.1122 80.2889 16.1122C79.1237 16.1122 78.0679 15.9083 77.1341 15.4971ZM82.35 14.1885C82.96 13.9098 83.4395 13.5224 83.7886 13.0262C84.1378 12.5299 84.3102 11.9725 84.3102 11.354C84.3102 10.7354 84.1336 10.1814 83.7886 9.68178C83.4395 9.18556 82.96 8.7981 82.35 8.5194C81.7401 8.24071 81.0545 8.10475 80.2889 8.10475C79.5233 8.10475 78.8377 8.2441 78.2278 8.5194C77.6178 8.7981 77.1383 9.18556 76.7892 9.68178C76.44 10.178 76.2676 10.7354 76.2676 11.354C76.2676 11.9725 76.44 12.5265 76.7892 13.0262C77.1383 13.5224 77.6178 13.9098 78.2278 14.1885C78.8377 14.4672 79.5233 14.6032 80.2889 14.6032C81.0545 14.6032 81.7401 14.4638 82.35 14.1885Z" fill="#4F5252"/>
<path d="M95.1579 15.5721L92.407 12.4622L89.6896 15.5687C89.4667 15.827 89.1007 15.9799 88.7095 15.9799H86.9092L91.1619 11.2625L87.1405 6.72852H88.9283C89.3152 6.72852 89.677 6.87806 89.8999 7.13297L92.47 10.0185L95.0065 7.13637C95.2295 6.88146 95.5954 6.72852 95.9824 6.72852H97.6692L93.6605 11.1945L97.9636 15.9799H96.1254C95.7384 15.9799 95.3767 15.8304 95.1495 15.5755L95.1579 15.5721Z" fill="#4F5252"/>
<path d="M109.225 6.72852V13.1522C109.225 14.5185 108.762 15.5653 107.841 16.296C106.92 17.0268 105.645 17.3938 104.021 17.3938C103.062 17.3938 102.192 17.2817 101.405 17.0574C100.618 16.833 99.9538 16.5136 99.4112 16.0989L99.6426 15.7488C99.9538 15.273 100.686 15.0895 101.266 15.3512C102.065 15.708 102.974 15.8882 103.992 15.8882C106.062 15.8882 107.101 15.0045 107.101 13.2304V12.5302C106.327 13.3221 105.203 13.7198 103.731 13.7198C102.259 13.7198 101.157 13.3867 100.362 12.7171C99.5668 12.0476 99.1672 11.0857 99.1672 9.83499V6.72852H100.093C100.753 6.72852 101.291 7.16356 101.291 7.69716V9.75342C101.291 10.5657 101.535 11.1775 102.019 11.5955C102.503 12.0136 103.184 12.2243 104.055 12.2243C104.98 12.2243 105.721 12.0034 106.272 11.5582C106.823 11.1129 107.096 10.4536 107.096 9.58348V7.69716C107.096 7.16356 107.635 6.72852 108.295 6.72852H109.221H109.225Z" fill="#4F5252"/>
<path d="M128.127 7.54056C128.88 8.16933 129.255 9.0768 129.255 10.2562V15.011C129.255 15.5446 128.716 15.9797 128.056 15.9797H127.13V10.3241C127.13 9.59341 126.895 9.03941 126.42 8.66555C125.944 8.29169 125.326 8.10475 124.565 8.10475C123.715 8.10475 123.033 8.29848 122.529 8.68594C122.02 9.0734 121.767 9.66819 121.767 10.4703V15.011C121.767 15.5446 121.229 15.9797 120.568 15.9797H119.643V10.3241C119.643 9.58322 119.42 9.02922 118.983 8.65875C118.541 8.28829 117.939 8.10475 117.174 8.10475C116.312 8.10475 115.622 8.30188 115.104 8.69274C114.587 9.0836 114.326 9.67838 114.326 10.4703V15.011C114.326 15.5446 113.788 15.9797 113.127 15.9797H112.202V6.72826H113.064C113.725 6.72826 114.263 7.1633 114.263 7.6969V7.94501C114.612 7.51337 115.087 7.18029 115.685 6.94578C116.286 6.71126 116.976 6.5957 117.763 6.5957C118.549 6.5957 119.273 6.71806 119.874 6.96617C120.476 7.21428 120.926 7.56095 121.233 8.00959C121.616 7.56095 122.133 7.21088 122.794 6.96617C123.454 6.71806 124.186 6.5957 124.994 6.5957C126.335 6.5957 127.383 6.91179 128.136 7.54056H128.127Z" fill="#4F5252"/>
<path d="M132.907 4.23451C133.252 4.39086 133.521 4.60838 133.714 4.89387C133.908 5.17937 134 5.50565 134 5.87612C134 6.24658 133.904 6.56267 133.714 6.84816C133.521 7.13366 133.252 7.35798 132.907 7.51772C132.562 7.67746 132.166 7.75903 131.716 7.75903C131.266 7.75903 130.867 7.67746 130.522 7.51772C130.177 7.35798 129.903 7.13366 129.71 6.84816C129.516 6.56267 129.42 6.23639 129.42 5.87612C129.42 5.51585 129.516 5.17937 129.706 4.89387C129.899 4.60838 130.168 4.39086 130.518 4.23451C130.867 4.07817 131.266 4 131.716 4C132.166 4 132.562 4.07817 132.907 4.23451ZM132.797 7.33759C133.109 7.19824 133.344 7.00111 133.513 6.7496C133.677 6.49809 133.761 6.2058 133.761 5.87272C133.761 5.53964 133.677 5.23715 133.513 4.98224C133.348 4.72734 133.109 4.53021 132.797 4.39086C132.486 4.25151 132.129 4.18353 131.716 4.18353C131.304 4.18353 130.938 4.25151 130.631 4.39086C130.32 4.53021 130.084 4.72734 129.916 4.98224C129.752 5.23715 129.668 5.53284 129.668 5.87272C129.668 6.2126 129.752 6.49809 129.916 6.7496C130.08 7.00111 130.32 7.19824 130.631 7.33759C130.942 7.47693 131.304 7.54491 131.716 7.54491C132.129 7.54491 132.486 7.47693 132.797 7.33759ZM132.65 5.75716C132.511 5.87272 132.309 5.94409 132.044 5.96788L132.869 6.98411H132.431L131.632 5.97808H131.212V6.98411H130.82V4.63897H131.851C132.187 4.63897 132.44 4.70015 132.608 4.8225C132.776 4.94486 132.861 5.1046 132.861 5.30513C132.861 5.48866 132.793 5.6382 132.654 5.75376L132.65 5.75716ZM131.212 5.76396H131.813C132.238 5.76396 132.448 5.62461 132.448 5.34591C132.448 5.20996 132.398 5.1046 132.301 5.03662C132.204 4.96865 132.04 4.93466 131.813 4.93466H131.212V5.76396Z" fill="#4F5252"/>
<path d="M59.3603 36.6339C58.2803 36.6339 57.2736 36.4606 56.3403 36.1139C55.4203 35.7539 54.6203 35.2472 53.9403 34.5939C53.2603 33.9406 52.7269 33.1739 52.3403 32.2939C51.9669 31.4139 51.7803 30.4472 51.7803 29.3939C51.7803 28.3406 51.9669 27.3739 52.3403 26.4939C52.7269 25.6139 53.2603 24.8472 53.9403 24.1939C54.6336 23.5406 55.4403 23.0406 56.3603 22.6939C57.2803 22.3339 58.2869 22.1539 59.3803 22.1539C60.5936 22.1539 61.6869 22.3672 62.6603 22.7939C63.6469 23.2072 64.4736 23.8206 65.1403 24.6339L63.0603 26.5539C62.5803 26.0072 62.0469 25.6006 61.4603 25.3339C60.8736 25.0539 60.2336 24.9139 59.5403 24.9139C58.8869 24.9139 58.2869 25.0206 57.7403 25.2339C57.1936 25.4472 56.7203 25.7539 56.3203 26.1539C55.9203 26.5539 55.6069 27.0272 55.3803 27.5739C55.1669 28.1206 55.0603 28.7272 55.0603 29.3939C55.0603 30.0606 55.1669 30.6672 55.3803 31.2139C55.6069 31.7606 55.9203 32.2339 56.3203 32.6339C56.7203 33.0339 57.1936 33.3406 57.7403 33.5539C58.2869 33.7672 58.8869 33.8739 59.5403 33.8739C60.2336 33.8739 60.8736 33.7406 61.4603 33.4739C62.0469 33.1939 62.5803 32.7739 63.0603 32.2139L65.1403 34.1339C64.4736 34.9472 63.6469 35.5672 62.6603 35.9939C61.6869 36.4206 60.5869 36.6339 59.3603 36.6339Z" fill="#562AD5"/>
<path d="M67.3282 36.3939V22.3939H73.3882C74.6416 22.3939 75.7216 22.6006 76.6282 23.0139C77.5349 23.4139 78.2349 23.9939 78.7282 24.7539C79.2216 25.5139 79.4682 26.4206 79.4682 27.4739C79.4682 28.5139 79.2216 29.4139 78.7282 30.1739C78.2349 30.9206 77.5349 31.4939 76.6282 31.8939C75.7216 32.2939 74.6416 32.4939 73.3882 32.4939H69.1282L70.5682 31.0739V36.3939H67.3282ZM76.2282 36.3939L72.7282 31.3139H76.1882L79.7282 36.3939H76.2282ZM70.5682 31.4339L69.1282 29.9139H73.2082C74.2082 29.9139 74.9549 29.7006 75.4482 29.2739C75.9416 28.8339 76.1882 28.2339 76.1882 27.4739C76.1882 26.7006 75.9416 26.1006 75.4482 25.6739C74.9549 25.2472 74.2082 25.0339 73.2082 25.0339H69.1282L70.5682 23.4939V31.4339Z" fill="#562AD5"/>
<path d="M80.1953 36.3939L86.4353 22.3939H89.6353L95.8953 36.3939H92.4953L87.3753 24.0339H88.6553L83.5153 36.3939H80.1953ZM83.3153 33.3939L84.1753 30.9339H91.3753L92.2553 33.3939H83.3153Z" fill="#562AD5"/>
<path d="M103.128 36.5139C102.248 36.5139 101.441 36.3139 100.708 35.9139C99.9878 35.5006 99.4078 34.8939 98.9678 34.0939C98.5411 33.2939 98.3278 32.2939 98.3278 31.0939C98.3278 29.8939 98.5344 28.8939 98.9478 28.0939C99.3744 27.2939 99.9478 26.6939 100.668 26.2939C101.401 25.8939 102.221 25.6939 103.128 25.6939C104.168 25.6939 105.088 25.9206 105.888 26.3739C106.688 26.8272 107.321 27.4606 107.788 28.2739C108.254 29.0739 108.488 30.0139 108.488 31.0939C108.488 32.1739 108.254 33.1206 107.788 33.9339C107.321 34.7472 106.688 35.3806 105.888 35.8339C105.088 36.2872 104.168 36.5139 103.128 36.5139ZM97.5078 40.2739V25.7939H99.3478V28.6539L99.2278 31.1139L99.4278 33.5739V40.2739H97.5078ZM102.968 34.8339C103.648 34.8339 104.254 34.6806 104.788 34.3739C105.334 34.0672 105.761 33.6339 106.068 33.0739C106.388 32.5006 106.548 31.8406 106.548 31.0939C106.548 30.3339 106.388 29.6806 106.068 29.1339C105.761 28.5739 105.334 28.1406 104.788 27.8339C104.254 27.5272 103.648 27.3739 102.968 27.3739C102.301 27.3739 101.694 27.5272 101.148 27.8339C100.614 28.1406 100.188 28.5739 99.8678 29.1339C99.5611 29.6806 99.4078 30.3339 99.4078 31.0939C99.4078 31.8406 99.5611 32.5006 99.8678 33.0739C100.188 33.6339 100.614 34.0672 101.148 34.3739C101.694 34.6806 102.301 34.8339 102.968 34.8339Z" fill="#562AD5"/>
<path d="M111.141 36.3939V25.7939H113.061V36.3939H111.141ZM112.101 23.7539C111.727 23.7539 111.414 23.6339 111.161 23.3939C110.921 23.1539 110.801 22.8606 110.801 22.5139C110.801 22.1539 110.921 21.8539 111.161 21.6139C111.414 21.3739 111.727 21.2539 112.101 21.2539C112.474 21.2539 112.781 21.3739 113.021 21.6139C113.274 21.8406 113.401 22.1272 113.401 22.4739C113.401 22.8339 113.281 23.1406 113.041 23.3939C112.801 23.6339 112.487 23.7539 112.101 23.7539Z" fill="#562AD5"/>
<path d="M120.367 36.5139C119.3 36.5139 118.473 36.2272 117.887 35.6539C117.3 35.0806 117.007 34.2606 117.007 33.1939V23.4739H118.927V33.1139C118.927 33.6872 119.067 34.1272 119.347 34.4339C119.64 34.7406 120.053 34.8939 120.587 34.8939C121.187 34.8939 121.687 34.7272 122.087 34.3939L122.687 35.7739C122.393 36.0272 122.04 36.2139 121.627 36.3339C121.227 36.4539 120.807 36.5139 120.367 36.5139ZM115.207 27.3739V25.7939H121.967V27.3739H115.207Z" fill="#562AD5"/>
<path d="M131.588 36.3939V34.1539L131.488 33.7339V29.9139C131.488 29.1006 131.248 28.4739 130.768 28.0339C130.301 27.5806 129.594 27.3539 128.648 27.3539C128.021 27.3539 127.408 27.4606 126.808 27.6739C126.208 27.8739 125.701 28.1472 125.288 28.4939L124.488 27.0539C125.034 26.6139 125.688 26.2806 126.448 26.0539C127.221 25.8139 128.028 25.6939 128.868 25.6939C130.321 25.6939 131.441 26.0472 132.228 26.7539C133.014 27.4606 133.408 28.5406 133.408 29.9939V36.3939H131.588ZM128.108 36.5139C127.321 36.5139 126.628 36.3806 126.028 36.1139C125.441 35.8472 124.988 35.4806 124.668 35.0139C124.348 34.5339 124.188 33.9939 124.188 33.3939C124.188 32.8206 124.321 32.3006 124.588 31.8339C124.868 31.3672 125.314 30.9939 125.928 30.7139C126.554 30.4339 127.394 30.2939 128.448 30.2939H131.808V31.6739H128.528C127.568 31.6739 126.921 31.8339 126.588 32.1539C126.254 32.4739 126.088 32.8606 126.088 33.3139C126.088 33.8339 126.294 34.2539 126.708 34.5739C127.121 34.8806 127.694 35.0339 128.428 35.0339C129.148 35.0339 129.774 34.8739 130.308 34.5539C130.854 34.2339 131.248 33.7672 131.488 33.1539L131.868 34.4739C131.614 35.1006 131.168 35.6006 130.528 35.9739C129.888 36.3339 129.081 36.5139 128.108 36.5139Z" fill="#562AD5"/>
<path d="M136.961 36.3939V21.5539H138.881V36.3939H136.961Z" fill="#562AD5"/>
<path d="M142.547 36.3939V25.7939H144.467V36.3939H142.547ZM143.507 23.7539C143.133 23.7539 142.82 23.6339 142.567 23.3939C142.327 23.1539 142.207 22.8606 142.207 22.5139C142.207 22.1539 142.327 21.8539 142.567 21.6139C142.82 21.3739 143.133 21.2539 143.507 21.2539C143.88 21.2539 144.187 21.3739 144.427 21.6139C144.68 21.8406 144.807 22.1272 144.807 22.4739C144.807 22.8339 144.687 23.1406 144.447 23.3939C144.207 23.6339 143.894 23.7539 143.507 23.7539Z" fill="#562AD5"/>
<path d="M151.173 36.5139C150.293 36.5139 149.453 36.3939 148.653 36.1539C147.866 35.9139 147.246 35.6206 146.793 35.2739L147.593 33.7539C148.046 34.0606 148.606 34.3206 149.273 34.5339C149.939 34.7472 150.619 34.8539 151.313 34.8539C152.206 34.8539 152.846 34.7272 153.233 34.4739C153.633 34.2206 153.833 33.8672 153.833 33.4139C153.833 33.0806 153.713 32.8206 153.473 32.6339C153.233 32.4472 152.913 32.3072 152.513 32.2139C152.126 32.1206 151.693 32.0406 151.213 31.9739C150.733 31.8939 150.253 31.8006 149.773 31.6939C149.293 31.5739 148.853 31.4139 148.453 31.2139C148.053 31.0006 147.733 30.7139 147.493 30.3539C147.253 29.9806 147.133 29.4872 147.133 28.8739C147.133 28.2339 147.313 27.6739 147.673 27.1939C148.033 26.7139 148.539 26.3472 149.193 26.0939C149.859 25.8272 150.646 25.6939 151.553 25.6939C152.246 25.6939 152.946 25.7806 153.653 25.9539C154.373 26.1139 154.959 26.3472 155.413 26.6539L154.593 28.1739C154.113 27.8539 153.613 27.6339 153.093 27.5139C152.573 27.3939 152.053 27.3339 151.533 27.3339C150.693 27.3339 150.066 27.4739 149.653 27.7539C149.239 28.0206 149.033 28.3672 149.033 28.7939C149.033 29.1539 149.153 29.4339 149.393 29.6339C149.646 29.8206 149.966 29.9672 150.353 30.0739C150.753 30.1806 151.193 30.2739 151.673 30.3539C152.153 30.4206 152.633 30.5139 153.113 30.6339C153.593 30.7406 154.026 30.8939 154.413 31.0939C154.813 31.2939 155.133 31.5739 155.373 31.9339C155.626 32.2939 155.753 32.7739 155.753 33.3739C155.753 34.0139 155.566 34.5672 155.193 35.0339C154.819 35.5006 154.293 35.8672 153.613 36.1339C152.933 36.3872 152.119 36.5139 151.173 36.5139Z" fill="#562AD5"/>
<path d="M164.732 36.3939V34.1539L164.632 33.7339V29.9139C164.632 29.1006 164.392 28.4739 163.912 28.0339C163.446 27.5806 162.739 27.3539 161.792 27.3539C161.166 27.3539 160.552 27.4606 159.952 27.6739C159.352 27.8739 158.846 28.1472 158.432 28.4939L157.632 27.0539C158.179 26.6139 158.832 26.2806 159.592 26.0539C160.366 25.8139 161.172 25.6939 162.012 25.6939C163.466 25.6939 164.586 26.0472 165.372 26.7539C166.159 27.4606 166.552 28.5406 166.552 29.9939V36.3939H164.732ZM161.252 36.5139C160.466 36.5139 159.772 36.3806 159.172 36.1139C158.586 35.8472 158.132 35.4806 157.812 35.0139C157.492 34.5339 157.332 33.9939 157.332 33.3939C157.332 32.8206 157.466 32.3006 157.732 31.8339C158.012 31.3672 158.459 30.9939 159.072 30.7139C159.699 30.4339 160.539 30.2939 161.592 30.2939H164.952V31.6739H161.672C160.712 31.6739 160.066 31.8339 159.732 32.1539C159.399 32.4739 159.232 32.8606 159.232 33.3139C159.232 33.8339 159.439 34.2539 159.852 34.5739C160.266 34.8806 160.839 35.0339 161.572 35.0339C162.292 35.0339 162.919 34.8739 163.452 34.5539C163.999 34.2339 164.392 33.7672 164.632 33.1539L165.012 34.4739C164.759 35.1006 164.312 35.6006 163.672 35.9739C163.032 36.3339 162.226 36.5139 161.252 36.5139Z" fill="#562AD5"/>
<path d="M173.745 36.5139C172.679 36.5139 171.852 36.2272 171.265 35.6539C170.679 35.0806 170.385 34.2606 170.385 33.1939V23.4739H172.305V33.1139C172.305 33.6872 172.445 34.1272 172.725 34.4339C173.019 34.7406 173.432 34.8939 173.965 34.8939C174.565 34.8939 175.065 34.7272 175.465 34.3939L176.065 35.7739C175.772 36.0272 175.419 36.2139 175.005 36.3339C174.605 36.4539 174.185 36.5139 173.745 36.5139ZM168.585 27.3739V25.7939H175.345V27.3739H168.585Z" fill="#562AD5"/>
<path d="M178.387 36.3939V25.7939H180.307V36.3939H178.387ZM179.347 23.7539C178.973 23.7539 178.66 23.6339 178.407 23.3939C178.167 23.1539 178.047 22.8606 178.047 22.5139C178.047 22.1539 178.167 21.8539 178.407 21.6139C178.66 21.3739 178.973 21.2539 179.347 21.2539C179.72 21.2539 180.027 21.3739 180.267 21.6139C180.52 21.8406 180.647 22.1272 180.647 22.4739C180.647 22.8339 180.527 23.1406 180.287 23.3939C180.047 23.6339 179.733 23.7539 179.347 23.7539Z" fill="#562AD5"/>
<path d="M188.513 36.5139C187.446 36.5139 186.499 36.2806 185.673 35.8139C184.846 35.3472 184.193 34.7072 183.713 33.8939C183.233 33.0672 182.993 32.1339 182.993 31.0939C182.993 30.0406 183.233 29.1072 183.713 28.2939C184.193 27.4806 184.846 26.8472 185.673 26.3939C186.499 25.9272 187.446 25.6939 188.513 25.6939C189.566 25.6939 190.506 25.9272 191.333 26.3939C192.173 26.8472 192.826 27.4806 193.293 28.2939C193.773 29.0939 194.013 30.0272 194.013 31.0939C194.013 32.1472 193.773 33.0806 193.293 33.8939C192.826 34.7072 192.173 35.3472 191.333 35.8139C190.506 36.2806 189.566 36.5139 188.513 36.5139ZM188.513 34.8339C189.193 34.8339 189.799 34.6806 190.333 34.3739C190.879 34.0672 191.306 33.6339 191.613 33.0739C191.919 32.5006 192.073 31.8406 192.073 31.0939C192.073 30.3339 191.919 29.6806 191.613 29.1339C191.306 28.5739 190.879 28.1406 190.333 27.8339C189.799 27.5272 189.193 27.3739 188.513 27.3739C187.833 27.3739 187.226 27.5272 186.693 27.8339C186.159 28.1406 185.733 28.5739 185.413 29.1339C185.093 29.6806 184.933 30.3339 184.933 31.0939C184.933 31.8406 185.093 32.5006 185.413 33.0739C185.733 33.6339 186.159 34.0672 186.693 34.3739C187.226 34.6806 187.833 34.8339 188.513 34.8339Z" fill="#562AD5"/>
<path d="M202.328 25.6939C203.195 25.6939 203.955 25.8606 204.608 26.1939C205.275 26.5272 205.795 27.0339 206.168 27.7139C206.541 28.3939 206.728 29.2539 206.728 30.2939V36.3939H204.808V30.5139C204.808 29.4872 204.555 28.7139 204.048 28.1939C203.555 27.6739 202.855 27.4139 201.948 27.4139C201.268 27.4139 200.675 27.5472 200.168 27.8139C199.661 28.0806 199.268 28.4739 198.988 28.9939C198.721 29.5139 198.588 30.1606 198.588 30.9339V36.3939H196.668V25.7939H198.508V28.6539L198.208 27.8939C198.555 27.2006 199.088 26.6606 199.808 26.2739C200.528 25.8872 201.368 25.6939 202.328 25.6939Z" fill="#562AD5"/>
</svg>
